<svg width="256" height="84" viewBox="0 0 256 84" fill="none" xmlns="http://www.w3.org/2000/svg">
<path d="M28.3403 76.1139L78.7429 44.6156C78.7429 66.3639 61.1109 83.9718 39.3826 83.9718C17.6543 83.9718 0 66.3639 0 44.6156C0 22.8674 17.632 5.25948 39.3603 5.25948C45.7497 5.25948 51.7828 6.79544 57.1036 9.48893L28.3403 76.1139ZM66.5652 0.0283203L37.8019 66.6533L88.2045 35.155C88.1822 19.8177 79.3885 6.52832 66.5652 0.0283203Z" fill="#1A1A1A"/>
<path d="M28.3403 76.1139L78.7429 44.6156C78.7429 66.3639 61.1109 83.9718 39.3826 83.9718C17.6543 83.9718 0 66.3639 0 44.6156C0 22.8674 17.632 5.25948 39.3603 5.25948C45.7497 5.25948 51.7828 6.79544 57.1036 9.48893L28.3403 76.1139ZM66.5652 0.0283203L37.8019 66.6533L88.2045 35.155C88.1822 19.8177 79.3885 6.52832 66.5652 0.0283203Z" fill="black" fill-opacity="0.2"/>
<path d="M121.074 67.183C129.195 67.183 137.692 62.6758 137.692 51.5509C137.692 43.3593 132.129 40.1219 125.582 36.9025C119.715 34.0408 118.373 32.9856 118.373 30.5173C118.373 28.0312 119.643 26.5288 121.825 26.5288C124.526 26.5288 125.814 28.6393 125.814 33.9693L137.173 30.732C137.173 22.9875 131.234 16.8348 121.986 16.8348C113.651 16.8348 105.977 21.7891 105.977 32.1628C105.977 40.6585 110.485 43.3593 117.407 46.3641C120.859 47.8664 125.367 50.0485 125.367 53.8045C125.367 56.2012 123.632 57.5605 121.378 57.5605C118.749 57.5605 116.566 55.6825 116.566 49.977L104.993 51.4794C104.993 61.0303 110.556 67.183 121.074 67.183ZM142.575 66.4318H164.756L167.761 56.3622H154.148V17.586H142.575V66.4318ZM171.589 66.4318H183.162V17.586H171.589V66.4318ZM206.398 67.183C216.254 67.183 223.534 60.7978 223.534 48.8502L212.032 46.1494C212.032 55.7719 209.922 56.6662 206.469 56.6662C201.514 56.6662 200.298 51.855 200.298 42.0894C200.298 31.5726 201.729 27.3516 206.756 27.3516C209.313 27.3516 211.71 28.7824 211.71 37.1171L222.675 33.8083C222.675 22.9159 217.184 16.8169 206.29 16.8169C193.054 16.8169 187.956 27.7093 187.956 42.6796C187.974 60.4222 195.182 67.183 206.398 67.183ZM228.185 66.4318H252.995L256 56.3622H239.758V46.9006H252.995V36.831H239.758V27.6556H254.873V17.586H228.185V66.4318Z" fill="#1A1A1A"/>
<path d="M121.074 67.183C129.195 67.183 137.692 62.6758 137.692 51.5509C137.692 43.3593 132.129 40.1219 125.582 36.9025C119.715 34.0408 118.373 32.9856 118.373 30.5173C118.373 28.0312 119.643 26.5288 121.825 26.5288C124.526 26.5288 125.814 28.6393 125.814 33.9693L137.173 30.732C137.173 22.9875 131.234 16.8348 121.986 16.8348C113.651 16.8348 105.977 21.7891 105.977 32.1628C105.977 40.6585 110.485 43.3593 117.407 46.3641C120.859 47.8664 125.367 50.0485 125.367 53.8045C125.367 56.2012 123.632 57.5605 121.378 57.5605C118.749 57.5605 116.566 55.6825 116.566 49.977L104.993 51.4794C104.993 61.0303 110.556 67.183 121.074 67.183ZM142.575 66.4318H164.756L167.761 56.3622H154.148V17.586H142.575V66.4318ZM171.589 66.4318H183.162V17.586H171.589V66.4318ZM206.398 67.183C216.254 67.183 223.534 60.7978 223.534 48.8502L212.032 46.1494C212.032 55.7719 209.922 56.6662 206.469 56.6662C201.514 56.6662 200.298 51.855 200.298 42.0894C200.298 31.5726 201.729 27.3516 206.756 27.3516C209.313 27.3516 211.71 28.7824 211.71 37.1171L222.675 33.8083C222.675 22.9159 217.184 16.8169 206.29 16.8169C193.054 16.8169 187.956 27.7093 187.956 42.6796C187.974 60.4222 195.182 67.183 206.398 67.183ZM228.185 66.4318H252.995L256 56.3622H239.758V46.9006H252.995V36.831H239.758V27.6556H254.873V17.586H228.185V66.4318Z" fill="black" fill-opacity="0.2"/>
</svg>
