<svg xmlns="http://www.w3.org/2000/svg" width="89" height="84" viewBox="0 0 89 84" fill="none"><path d="M28.3403 76.0856L78.7429 44.5873C78.7429 66.3356 61.1109 83.9435 39.3826 83.9435C17.6543 83.9435 0 66.3356 0 44.5873C0 22.839 17.632 5.23116 39.3603 5.23116C45.7497 5.23116 51.7828 6.76712 57.1036 9.46061L28.3403 76.0856ZM66.5652 0L37.8019 66.625L88.2045 35.1267C88.1822 19.7894 79.3885 6.5 66.5652 0Z" fill="#1A1A1A"></path><path d="M28.3403 76.0856L78.7429 44.5873C78.7429 66.3356 61.1109 83.9435 39.3826 83.9435C17.6543 83.9435 0 66.3356 0 44.5873C0 22.839 17.632 5.23116 39.3603 5.23116C45.7497 5.23116 51.7828 6.76712 57.1036 9.46061L28.3403 76.0856ZM66.5652 0L37.8019 66.625L88.2045 35.1267C88.1822 19.7894 79.3885 6.5 66.5652 0Z" fill="black" fill-opacity="0.2"></path><style>@media (prefers-color-scheme: light) { :root { filter: none; } }
@media (prefers-color-scheme: dark) { :root { filter: invert(100%); } }
</style></svg>